<?xml version="1.0" encoding="utf-8"?>
<!-- Generator: Adobe Illustrator 23.0.6, SVG Export Plug-In . SVG Version: 6.00 Build 0)  -->
<svg version="1.1" id="Layer_1" xmlns="http://www.w3.org/2000/svg" xmlns:xlink="http://www.w3.org/1999/xlink" x="0px" y="0px"
	 width="864px" height="864px" viewBox="0 0 864 864" enable-background="new 0 0 864 864" xml:space="preserve">
<g>
	<path d="M820.6395,306.4095c-6.4244-41.1676-20.8151-75.0885-40.4738-111.4507c-9.097-16.7806-16.9092-31.5824-30.9143-45.0994
		c-6.7072-6.4758-11.7181-12.7203-18.9906-18.9906c-6.0646-5.2423-13.2343-15.7269-21.4575-12.7203
		c0.3083,5.4993,8.6344,14.0566,8.6858,33.7153c-2.801-0.1799-9.5852-2.1329-13.4142-2.7239
		c-5.4479-0.8223-7.8635-1.7217-12.8745-3.0067c-8.5574-2.1843-18.8877-3.0066-27.7278-4.2144l-43.3005-4.2658
		c-5.2937-0.4368-9.4824-1.5161-15.0074-1.9016c-45.2792-3.058-44.6881-3.8803-84.7765,6.3474
		c-7.478,1.9016-17.6801,3.4949-21.7916,10.1763c3.7518,3.3407,19.8385,8.8914,23.5389,10.8444
		c2.1073,1.1307,4.8313,3.0323,7.1697,4.2915c-3.0322,2.7497-26.2115,9.097-32.636,11.9238
		c-7.1953,3.1865-20.6865,11.9237-27.7278,16.4208c-4.2144,2.6725-8.6086,6.2188-12.6174,9.4567
		c-6.4502,5.1652-5.6022,5.6021-10.6903,11.4098c-3.5206,4.0088-6.8612,7.8378-10.2791,11.7952
		c-2.1073,2.4413-3.4435,2.0815-5.7306,4.9083c-2.1072,2.5441-2.3899,4.9083-4.7283,6.9897
		c-2.3386-3.3406-3.0067-11.2556-3.8804-15.9068c-1.3107-7.1697-12.2836-42.5553-12.1294-48.4401
		c5.8335-4.0859,23.4877-35.8483,26.52-44.6368c3.3665-9.7651,11.9237-33.0472,8.9685-43.3519
		c-2.4927-8.6344-2.4927-5.6535-7.7351-10.8187c-7.7092-7.6322-15.7783-8.9942-26.8282-8.5059
		c-13.337,0.5654-64.5782,25.929-72.3903,36.1566c-9.8165-2.1329-37.9812-5.3195-47.2323-3.7776
		c-4.9083,0.848-10.3562,3.0323-15.2902,2.6982c2.0559-4.5485,22.1771-21.5089,20.0186-25.0295
		c-2.3386-6.3217-10.9216-2.1329-16.1382-0.5397c-3.4177,1.0536-14.2366,5.1138-17.1917,6.5786
		c-5.7307,2.8267-24.5413,14.7247-28.1647,18.7593c1.3105-5.011,18.8621-20.2241,21.329-26.0317
		c-5.1652-7.2724-17.3202-2.9552-25.158-2.6212c-12.489,0.5397-28.4473,4.5742-40.2939,7.5037L156.8948,97.796
		c-10.5874-13.5427-58.4621-37.3387-75.5767-40.1654C65.4626,54.9838,54.7467,70.428,51.4574,83.9964
		c-3.5977,14.7504,0.6938,35.9253,3.0837,51.0355c1.3362,8.583,5.6277,14.0566,1.8759,22.7938
		c-8.249,19.2219-20.0699,74.626-21.0207,94.5931c-0.4883,9.7137,0.4625,19.4531,0,29.2439
		c-0.4369,9.1998-0.9765,18.6308-1.5676,27.8049c-1.4134,21.9972,2.9553,57.537,6.5015,79.303
		c3.3664,20.7894,8.8657,29.1925,13.9795,44.277c21.329,62.8051,19.1191,23.0765,20.5839,93.5394
		c0.3854,18.194,0.3083,33.3299-0.4112,51.5752l0.2313,27.4708c-2.3641,28.6014-1.7217,52.2433-4.3686,83.0806
		c-0.334,3.7775-4.1116,23.4875,4.1887,17.9626c5.6278-3.7776,8.8657-10.9729,13.4913-15.7527
		c-0.6682,10.793-3.1094,21.4575-4.0089,32.5076c-1.0279,12.6689-2.7753,24.4126-3.9831,36.8247
		c-0.8737,9.0713-1.696,29.0383-0.2056,37.7755c2.0558,12.0265,7.0669,19.6587,20.0185,20.5581
		c12.1036,0.8224,26.6999,1.5162,38.8292,1.8502c40.2425,1.1306,23.3848-25.1837,39.7029-82.7465
		c8.2745-29.3209,5.5505-36.9789,39.3687-42.1954c11.8723-1.8503,23.1793,0.5652,24.1559,14.3906
		c0.8224,11.564,1.3619,25.8262,1.6703,37.5186c0.4111,14.3394-0.7195,61.1604,13.3884,67.9189
		c6.296,3.0066,29.4238,2.21,37.4929,1.9272c42.8638-1.4133,42.8894-11.9495,48.2859-72.4673
		c1.1307-12.6433,0.7966-25.3123,2.9038-37.827c2.6212-15.3672,0.8738-22.2028,18.9136-22.871
		c12.7202-0.4882,22.0999,0.6168,35.3086-0.7451c10.8701-1.1307,25.5947-1.8246,35.3856,3.1865
		c11.6154,5.9618,10.5616,18.271,10.9471,29.8092c0.4369,13.4656,1.0022,26.4943,1.6448,39.9342
		c0.6937,13.9281-1.9275,21.4319,1.2334,35.7197c2.7239,12.2578,1.1821,21.3547,14.4678,26.2629
		c15.47,5.6792,54.5562,6.8099,65.1692-8.6344c6.4758-9.4054,9.8937-54.5048,9.6624-66.9681
		c-0.3597-17.8599-2.1072-52.3975,10.1249-66.0172l15.1616-0.077c1.6703,11.6924,0.3855,21.7145,2.3129,34.075
		c1.5675,10.0992,2.5955,23.5906,2.6982,33.8439c0.1284,11.5126,0.6938,23.0765,1.3105,34.589
		c0.4625,8.6345,2.5698,22.614,11.2556,26.7513c7.6836,3.6747,56.5605,2.1072,65.092-2.3899
		c13.7483-7.2467,10.4076-13.1058,10.6132-26.9825c0.1542-12.5918,0.5911-24.053,1.5419-36.6191
		c0.8994-11.9495,0.9508-23.1792,3.0066-35.103c1.696-9.8936,9.4568-56.7146,13.5171-62.5223
		c2.0557-2.8782,17.7827-11.9237,22.4597-15.5471c34.7432-26.7512,48.6714-44.8938,73.521-78.4806
		c19.7615-26.7256,34.2805-75.14,43.5061-106.671C827.989,395.2463,827.989,353.6161,820.6395,306.4095z M409.2458,77.315
		c17.9111-2.6725,29.9634,1.2849,27.3679,21.4832c-1.1821,9.3283-7.9148,30.7087-12.5918,38.7778
		c-4.7284,8.1719-12.0522,27.7021-18.2454,33.9209c-8.5574,8.583-27.7534-4.163-37.1846-7.6579
		c-6.3215-2.3385-27.9333-14.7504-33.1499-19.0162C309.359,123.6222,370.7764,83.0713,409.2458,77.315z M64.7945,70.8649
		c2.7496-2.5955,6.5272-2.3128,9.5595-3.0067c21.6888-5.0367,55.0444,17.68,71.5166,30.5802
		c21.8943,17.166,5.2422,25.4664,0.8737,30.5031c-3.6234,4.163-9.4567,8.3004-13.8767,11.7438
		c-9.097,7.1439-18.7079,16.2666-30.1691,21.9972c-15.9582,8.0176-26.3401,28.6529-37.7498-14.3136
		c-3.3664-12.6946-6.7328-32.2762-6.9641-45.2535C57.8047,92.2968,56.3657,78.8312,64.7945,70.8649z M58.1131,419.4279
		c-14.4935-44.1229-17.937-115.4081-15.9839-163.4371c0.9765-23.7703,8.7886-72.9556,19.5559-91.8434
		c3.1608,3.2122,7.5808,11.9237,10.5617,14.108c5.0624,3.7262,14.6991,3.1608,19.2733-0.257
		c4.4457-3.315,8.3774-7.8121,13.517-11.2042c5.3965-3.5463,5.8077-2.2614,14.7248-9.1741
		c4.6255-3.6234,9.3539-7.144,13.9795-10.7673c4.5485-3.572,7.9406-7.2981,12.7974-11.0243
		c16.9091-12.9002,16.4208-16.4979,15.6241-30.9656c13.1058-14.7505,42.9666-16.6778,55.5583-19.8386
		c6.4502-1.619,14.4934-3.2893,21.072-4.0345c-0.334,1.1821-11.4354,17.4487-13.337,20.5839
		c-9.1998,15.0331-11.8723,17.7057-1.105,17.423c7.1953-8.4031,12.746-13.5941,24.2843-18.9391
		c9.4568-4.42,20.1212-9.6109,28.6272-13.6454c-3.0066,5.8334-18.6309,16.6778-21.7659,27.2909
		c5.8076,7.0154,9.1482,1.0279,14.7504-1.7731c5.6534-2.8267,11.7695-3.7518,18.014-4.9854
		c8.2747-1.619,34.0752,0.9765,42.324,3.1608c-0.6167,1.8502-13.5168,14.956-8.146,30.9913
		c4.1887,12.4634,7.1953,9.2255,22.1514,18.4252c8.917,5.4993,30.2975,17.7057,39.9341,20.9693
		c22.0229,7.5037,11.7439-6.2445,19.6073,18.528c1.2849,4.0602,3.2893,9.6109,4.8055,13.6711
		c3.7004,9.8422,5.2422,18.785,8.4802,28.6786c4.4713,13.6454,5.9618,50.7015,4.5741,65.6832
		c-1.0536,11.2556-1.7731,23.6932-3.1608,34.8203c-0.6682,5.4222-1.1565,11.0757-1.8246,16.6264
		c-1.619,13.0544-3.1351,12.2834-3.5463,14.365c-0.1799,0.9251,0.6425,4.2401,0.3083,6.7328l-10.6646,54.2477
		c-2.6725,9.8936-6.5271,18.7593-9.3281,28.6786c-2.801,9.9706-5.6279,17.1917-11.2556,25.9032
		c-6.1931,9.5853-26.0574,32.636-35.0516,39.2147c-12.9259,9.431-36.7219,19.3503-52.5004,21.7402
		c-19.2217,2.9296-49.0825,3.1865-68.0986-0.7195c-20.8923-4.2915-40.3711-6.8613-60.698-14.5192
		c-9.9706-3.7518-17.1403-4.7797-26.6227-10.4846c-15.3929-9.2512-41.4503-26.2887-51.7808-41.0392
		C77.7718,468.3305,63.8951,436.9537,58.1131,419.4279z M670.925,630.1743c-1.7218,5.6021-3.752,10.4846-5.5251,16.4978
		c-13.4912,45.3564-13.0801,86.8066-15.033,132.4458c-0.3342,8.0176,1.3362,10.613-3.5464,13.4398
		c-7.1182,4.1373-14.0566,5.0881-22.2542,4.2401c-0.3083-7.4009-0.6425-15.3928,0.4111-22.5111
		c0.6938-4.6256,2.6726-17.3717-3.8032-17.937c-2.4927,5.4222-0.334,34.5634-2.4413,40.4481
		c-3.5977,2.3899-9.688,1.9272-14.3907,1.696c-0.8479-7.2725-0.2056-16.7035,0.1028-24.1301
		c0.1543-4.0859,1.5933-14.699-2.8267-16.318c-3.5463,3.1865-2.467,4.2145-1.9016,8.9685
		c0.5654,4.6512,0.2056,28.7557-1.8245,30.683c-3.8291,1.696-15.6757,0.9508-18.708-4.0603
		c-5.9875-9.8678-3.4177-53.708-3.2893-65.7603c0.2056-15.1101-1.0535-31.608-1.7731-46.8467
		c-0.3085-6.3218-1.8246-13.0032-8.3004-15.3416c-4.1116-1.5161-16.3694,0.6423-20.6094,2.2871
		c-5.1653,1.9786-7.2468,10.8958-9.1484,15.5212c-5.1395,12.6689-2.4927,27.291-3.829,40.1912
		c-1.9786,18.785,0.3085,48.697-4.0345,66.814c-1.5933,6.63-3.7004,10.5103-8.6602,15.213
		c-6.116,5.8077-10.6387,5.2679-18.7335,5.3195c-1.2078-9.3796-1.8759-41.99-3.4435-44.0201
		c-5.6792,1.619-3.1351,15.3929-2.8524,20.2498c0.4111,7.5551,0.6425,15.8041,0.9252,24.0016l-19.2219-1.4133
		c-2.0815-7.9919,1.1306-37.8269-2.2871-42.6067c-6.4758,0.8223-2.7496,13.6454-3.1608,18.7849
		c-0.257,3.2122,1.1307,19.1448-0.7966,21.0978c-6.1161,3.1351-12.0779-6.964-13.6969-11.6924
		c-1.3362-3.9574-1.7473-21.3291-1.2078-25.7748c1.7217-13.9795,0.7452-34.4606-0.4111-48.7484
		c-2.1072-26.3658,2.9294-47.9261-31.5568-45.1765c-7.9406,0.6168-17.423-0.4882-25.6205-0.6425
		c-18.1426-0.334-35.0774-6.8356-47.0267,2.2357c-14.4678,10.9729-10.9987,21.766-11.4869,38.5465
		c-0.4624,16.1382-2.7239,31.4539-3.2378,47.3093c-0.2827,8.4288-1.028,15.6243-3.906,23.5905
		c-4.5229,12.4376-5.0111,8.7887-9.4824,16.8834l-16.9092,2.801c-0.334-6.4502-0.925-12.9773-0.8479-19.376
		c0.0513-4.8826,2.4927-12.4634-1.6448-15.5729c-4.8826,2.7754-2.5697,11.2556-2.7239,16.3951
		c-0.1543,5.0625,0.5396,14.1079-0.6167,18.7336c-3.8291,1.3876-8.8915,0.8994-13.0802,0.4368
		c-4.9596-0.5653-6.9127,0.5654-11.8723,0.3855c-0.9252-6.4244,0.7452-30.9399-1.0536-34.3835
		c-9.5596-5.4478-0.6425,30.0664-5.3708,34.7175c-16.4722,1.7218-15.9067-19.4531-15.7527-30.4003
		c0.2313-15.0846,1.8503-30.0919,0.2571-45.3049c-3.4949-33.3041,4.7283-50.6758-46.924-42.1185
		c-12.8231,2.1331-23.7446,5.782-30.0919,18.4767c-12.6176,25.2094-5.6278,54.7617-13.5427,80.9989
		c-1.4647,4.8826-1.7217,14.9818-5.9618,17.937c-2.4669,1.7476-15.6241,4.5486-18.7079,3.7776
		c-1.7217-3.058-1.4904-13.9795-1.696-18.7849c-0.1542-3.9575-0.591-6.7842,0.0771-10.5618c0.8737-4.934,2.4669-5.9619-3.058-7.4266
		c-3.8804,10.3561-0.6682,25.3636-1.362,37.4928c-7.5037,0.4626-15.7269,2.3643-23.282,0.2313
		c-1.4134-8.2489,2.5698-31.9935,0.1028-38.0068c-5.2937-0.2313-3.9061,1.696-3.6747,5.9105l-1.9788,30.3745
		c-1.2849,0.4113-0.2056,0.1543-1.696,0.1543c-15.2387,0.1284-14.4421-9.0969-15.3158-22.8452
		c-0.3083-5.2167,2.1072-11.7439,2.3899-17.4231l2.2614-38.2894c0.257-5.8077-0.0771-9.9193,0.591-16.3951
		c0.5397-5.2423,4.7541-32.4818,3.5206-35.2314c-6.2446-3.1865-9.8422,1.696-14.1594,4.9854
		c-1.1307-3.4949,1.2335-40.2939,1.3362-47.8234c0.1285-7.9406-1.3619-14.6991-0.4111-23.5391l1.4648-45.2021
		c-0.0771-8.1204-1.5676-16.4722-1.5419-24.6954c0.1028-17.423-0.1285-34.8203-0.0771-52.2947
		c5.0881,3.0067,10.536,10.4076,16.2923,14.9047c15.5214,12.1293,39.1889,27.2395,57.3829,32.7388
		c8.4546,2.5441,13.8767,4.9597,22.9994,7.0155c7.9919,1.8245,15.8297,4.2144,24.053,6.0646
		c14.6476,3.315,64.9637,8.1976,80.5365,5.3194c8.3517-1.5419,16.3694-3.1351,24.5155-5.5507
		c38.6749-11.564,46.5898-16.241,75.5254-44.6368c4.1887-4.1373,18.1426-33.8695,19.6844-40.3453
		c3.4692-14.8018,9.6366-29.9377,12.8489-45.4334c13.1057-63.5503-1.2079-60.004,26.7255-63.6531
		c9.1741-1.2078,18.2968-1.619,27.4452-2.5441c8.146-0.8223,15.1101-3.9832,23.3076-4.934
		c26.0833-3.0067,52.8601,3.0066,77.7869,11.8466c15.8811,5.6534,25.0038,11.2299,36.0281,24.1301
		c11.3584,13.2857,16.7549,21.252,21.7659,38.3409c2.1587,7.3495,5.6792,14.5192,8.249,21.7659
		c3.0837,8.6344,2.7239,13.6454,7.9148,21.9972c7.0155-0.1542,6.8613-3.0837,9.9965-8.4288
		c2.0044-3.3921,4.7028-8.583,6.4758-12.0522c3.5463-6.9897,8.5316-24.5413,10.0477-26.2116
		c1.9016,2.467,4.3173,16.0353,5.0367,19.8129c1.6703,9.1227,1.9017,13.3371,2.1329,22.5369
		c0.1799,7.0154-4.677,39.4202-6.707,46.4871c-4.6514,16.1381-3.8547,24.6954-5.6536,32.1735
		c-3.5463,14.7504,10.4076,5.0624,18.0398-3.8547l12.489-12.746c-1.4905,12.1036-3.7261,25.1323-4.5742,37.0817
		c-1.0535,15.1359-4.0602,20.6094-9.6365,33.998C677.4265,607.8944,674.24,619.4841,670.925,630.1743z M816.605,397.405
		c-1.7217,34.7175-10.2791,48.1317-16.9861,75.0885c-2.4927,9.945-8.249,23.6418-13.4399,32.5333
		c-5.2937,9.1227-9.3282,20.9179-15.0845,30.8629c-8.8143,15.1873-26.9055,40.3967-39.4202,52.4747
		c-4.0347,3.906-6.2703,7.8634-10.9987,12.0007c-4.2401,3.6748-7.9663,7.1183-12.0009,10.9729
		c-4.9854,4.7798-22.0229,15.3158-28.6272,16.7035c0.8994-7.6578,23.0765-55.2499,23.1536-90.1473
		c0.0258-8.4288,0.1028-24.0787-4.4713-30.7858c-9.5853-0.2313,0.6681,3.2893-20.3011,25.3893
		c-2.6726,2.8268-4.2401,6.7842-6.1675,8.7629c0.2571-4.1373,6.8099-26.2116,8.0435-33.3042
		c2.1072-12.0265,1.5161-25.1066,3.058-37.5443c1.7731-14.4678-0.848-24.0273-1.4391-37.6984
		c-0.3599-8.2233-3.752-25.672-9.5852-30.8372c-7.0413,0.1542-6.9897,5.2423-8.2233,11.1014
		c-1.5419,7.3495-15.2386,39.9084-16.5236,41.2448c-5.2681-6.0646-8.8143-23.7703-11.8981-31.788
		c-12.2064-31.7109-28.8328-51.3696-60.184-66.9424c-11.8208-5.8848-19.8899-7.4009-32.5588-9.7651
		c-15.5471-2.9039-25.4407-1.2592-40.2939-1.953c-7.4265-0.3598-75.1399,4.163-78.5063,5.7819
		c-0.5139-6.5015,1.696-25.8004,2.5184-33.4326c1.3105-11.8209,0.848-23.5648,0.9252-35.3857
		c0.077-10.9986-0.5654-22.9223,4.7797-33.1757c6.0647-11.6154,24.4642-33.8695,34.6405-41.3732
		c4.2144-3.1094,5.4993-5.6277,10.459-8.9941c4.1116-2.8011,7.8634-4.0089,12.2577-6.2703
		c10.202-5.2937,14.108-8.7886,25.9032-12.155c3.4692-0.9765,28.1389-7.5037,28.9355-8.1205
		c0.8224-6.8099-17.1917-10.5617-26.854-18.9648c8.1719-2.6212,21.4832-3.6747,30.4517-4.934
		c14.8533-2.1072,25.0295-1.5933,32.6619-2.6212c22.0228-2.981,40.6279,2.4413,62.3424,3.0067
		c16.7291,0.4368,43.0692,5.6277,58.6935,11.1785c3.8289,1.3619,9.688,2.9809,13.0544,4.6769
		c3.4177,1.7217,9.6365,5.4479,10.8186-0.9508c0.0515-0.257-3.7004-29.1925-3.906-29.7322
		c8.7629,3.2893,17.4231,15.5214,22.7938,23.1022c3.3663,4.7541,5.1909,9.1998,8.8656,14.108
		c16.2667,21.7402,33.7668,47.4379,42.3499,72.5445c3.7004,10.7673,8.9685,24.2842,10.5874,35.437
		C813.2643,324.5007,819.0977,347.2175,816.605,397.405z"/>
	<path d="M111.8212,373.1464c-1.3362,15.3415,1.5419,31.4796,2.1843,47.1038c0.5653,13.8253,2.4927,27.2395,7.5294,40.114
		c6.3216,16.2923,12.0265,17.9626,28.73,20.738c18.014,2.9809,25.5178-1.2078,42.2468-5.0624
		c0.437,16.8834-4.3171,44.6625,26.3658,49.5964c10.382,1.6703,32.8159,3.9061,43.8658,2.0302
		c22.3313-3.8033,20.7124-36.2337,24.0017-50.4188c26.6741-7.478,57.9482,3.3664,68.5099-31.0428
		c6.5016-21.2006,5.9105-68.9468,3.495-91.535c-1.8503-17.423-1.8503-23.6418-11.8467-38.3666
		c-6.8357-10.0478-18.9136-16.1124-30.606-18.8364c-19.7101-4.5999-69.5378-10.8701-88.3485-6.9127l-45.2792,5.1909
		c-18.2454,1.5419-24.2587,0.7452-41.8616,7.5808C113.2603,314.0161,113.9284,348.4252,111.8212,373.1464z M271.0696,510.4232
		c-6.553,11.4869-20.2241,11.4869-32.1736,9.431c-39.0861-6.7071-40.191-2.3641-37.5698-45.6133
		c7.812-1.7217-2.4414-1.619,15.5212-3.9318c4.7798-0.6168,12.4121-3.1351,16.5493-1.6447
		c0.9766,2.2357,0.4883,21.9458,0.2827,23.8474c-0.4626,4.6256-1.5933,3.4435,1.4648,7.0411
		c6.2444-2.5441,4.2657-6.116,4.1116-12.0008c-0.1543-6.2188-0.0771-12.4633,0.1028-18.6822
		c5.2166,0.0771,32.0449,5.3194,37.3644,6.7842C278.4191,482.3357,274.8984,503.7161,271.0696,510.4232z M190.3018,300.5505
		c15.4443-2.0302,34.769-1.7217,50.8043-2.4156c16.9091-0.7195,35.1287-1.7217,51.9349,0.334
		c17.4487,2.1586,23.4363,8.0691,38.1096,15.8555c14.9561,7.9406,15.5214,18.7079,19.6843,34.3577
		c3.5206,13.2343,2.647,32.9444,2.6212,46.9496c-0.0258,30.169,4.6512,68.5356-35.7968,70.6428
		c-19.6331,1.0279-25.4407,4.5485-46.2559-1.1307c-36.0537-9.8936-55.7639-4.934-90.1987,6.6814
		c-10.6646,3.5977-32.9701,3.5206-43.4804-0.2056c-13.5941-4.8054-14.3393-27.1624-15.1359-38.9833
		c-1.0536-15.1616-5.4993-30.1947-5.9875-45.7161c-0.6938-23.3077,1.1307-69.1266,27.0339-79.0717
		C150.9844,305.0219,180.5624,301.8354,190.3018,300.5505z"/>
	<path d="M197.42,373.8402c19.6587,5.5764,15.5729,3.9061,37.4672,4.0345c11.6154,0.0771,28.0875,0.334,38.3667-5.7563
		c2.287-1.362,12.3605-7.9406,13.594-9.4053c2.7239-3.2893,6.5786-11.3069,6.0647-15.47c-0.3085-2.467-4.1887-15.4957-5.5251-17.423
		c-1.5161-2.1843-10.3303-9.6623-12.5662-10.3047c-8.6086-2.5441-31.017-0.1542-42.0669-1.2335
		c-7.1697-0.7195-32.8931,2.5184-39.8314,5.2938c-11.5897,4.6255-19.5817,13.6711-17.9113,26.9568
		C176.5793,363.1757,185.8818,370.5509,197.42,373.8402z M208.3416,336.296c1.8502-0.6938,9.5081-2.3385,11.4868-2.4927
		c6.707-0.514,21.9973-1.9016,25.0809,4.2144c5.8334,11.6411-36.9789,11.7695-43.6859,6.3216
		C200.9919,340.1249,204.307,337.8635,208.3416,336.296z"/>
	<path d="M102.9298,307.8743c6.887-4.5485,22.8709-24.0787,35.4627-31.7623c6.4244-3.9318,19.0163-7.7864,22.614-10.9215
		c8.2489-7.2211,3.6234-19.376-5.5763-16.3437c-27.4452,9.0969-42.7867,20.8408-57.1517,43.7117
		c-2.2614,3.5977-4.7283,7.6322-4.5742,12.1036C93.8842,309.6732,98.9724,310.4698,102.9298,307.8743z"/>
	<path d="M358.8013,287.6246c12.8745,25.158,29.1155,7.4009,15.3929-9.2512c-4.6256-5.6021-8.5316-11.2042-14.6991-15.3158
		c-6.5786-4.42-10.5618-9.0455-16.8833-13.1572c-6.1418-4.0345-16.5493-8.9685-23.3591-4.2915
		c-3.1353,2.1586-4.6257,6.0646-3.4178,9.8679C318.2761,263.1861,344.6676,259.9996,358.8013,287.6246z"/>
	<path d="M378.126,140.1201c20.147,10.4847,23.6418,4.4971,31.6852-14.0566c3.1094-7.144,6.3217-13.3885,6.964-21.3548
		c1.028-12.4119-5.782-11.9751-14.699-10.5103l-21.509,7.0154c-5.2937,2.7754-13.6968,6.3217-17.4229,10.8187
		C353.0964,124.1618,351.349,126.2177,378.126,140.1201z M372.2925,115.8615c5.2938-3.2379,32.9187-16.2667,36.7734-16.3438
		c-1.0793,8.5573-0.9766,10.6646-3.829,19.299c-0.8737,2.6212-7.0925,14.2622-8.9427,15.7527
		c-9.1997,7.478-31.7366-7.7864-34.1265-11.1528C364.3777,119.1251,368.438,118.2256,372.2925,115.8615z"/>
	<path d="M91.4429,146.6987c7.6836,3.1608,13.8253-5.6278,18.6051-10.2534c13.2343-12.7717,22.7681-17.7057,6.7842-34.5891
		c-6.0646-6.4244-10.0221-7.7093-17.4744-11.7181c-3.906-2.0815-18.014-7.6579-21.4318-6.3987
		c-4.934,1.7988-6.2188,2.0558-4.5999,7.6065C75.8702,100.0574,86.6118,144.72,91.4429,146.6987z M98.5869,98.8754
		c4.1887,1.1564,15.7012,6.6299,18.1939,10.0992c9.5852,13.2856-21.1235,29.4238-24.1815,29.7065
		c-3.6234-4.9083-14.0309-47.7463-14.108-47.9261C81.5493,91.5258,89.8497,96.4855,98.5869,98.8754z"/>
	<path d="M304.1167,332.8525c1.7988,2.6982,5.0881,4.1373,7.812,7.8121c11.6667,15.8812,16.8064,38.8035,18.1941,58.5649
		c0.7966,10.9215-1.5162,24.1815,2.7495,27.625l3.4949-2.21c0.2313-11.3326-1.2848-31.4796-2.9808-42.7866
		c-0.6681-4.42-2.2614-8.3517-3.1865-12.6689c-5.9362-27.5736-11.0243-26.6999-21.9716-40.4995
		C306.0955,329.6146,305.0417,330.7966,304.1167,332.8525z"/>
	<path d="M136.0798,428.1393c6.3472,0.0771,5.268-4.5485,5.0882-9.5338c-0.771-22.2542-0.3342-43.686,8.9684-64.424
		c5.8077-12.9516,10.7416-12.1036,10.1249-18.2968c-6.116-1.0022-4.9082,1.4391-8.4288,5.8591
		c-7.7094,9.6624-9.2255,20.2755-13.1315,31.8394C134.5122,386.0723,136.4138,413.8771,136.0798,428.1393z"/>
	<path d="M538.4022,297.1328c5.2167,4.1116,4.4457-4.0089,21.6117-1.4134c4.5999,0.6938,18.6565,5.8591,20.918,0.3597
		C579.2101,294.8713,538.4536,284.7208,538.4022,297.1328z"/>
	<path d="M484.103,300.422c-7.8635-0.0514-16.5236,1.7474-23.6161,5.2681c-0.0258,3.4949-0.3085,2.1329,1.7731,4.7797
		c3.829-0.7709,8.8401-3.6234,14.3137-4.6512c6.887-1.3106,14.2878,0.8737,17.5771-1.0022
		c0.7709-3.3664-0.0258-2.5955-1.2593-5.8334C488.5745,299.7796,489.3711,300.4477,484.103,300.422z"/>
	<path d="M433.7871,328.6638l0.4883,4.2658c4.3685,1.953,3.5977-0.0257,7.6578-1.5676c12.5148-4.8055,21.3547-2.7496,24.6954-4.8312
		l-2.2357-4.8569C453.9341,323.1644,443.5265,323.8069,433.7871,328.6638z"/>
	<path d="M591.7505,160.7296c13.8511,1.1307,17.9884,6.7842,20.995,1.5675c-4.7797-6.5786-33.5612-5.6021-41.7073-4.9596
		C569.6505,166.306,576.2549,159.4447,591.7505,160.7296z"/>
	<path d="M564.6909,208.3987c7.5551-1.4134,15.4443,0.9251,21.6631,0.4368c0.6938-6.0646-2.5441-4.9339-7.6836-4.9082
		c-4.7026,0.0257-8.1975-0.6168-12.8745,0.3083c-4.0345,0.8223-18.7336,3.1865-16.2922,9.3026
		C553.2811,215.4142,555.0029,210.2233,564.6909,208.3987z"/>
	<path d="M473.49,238.2851c9.688-4.9083,11.7952-1.7988,16.6006-4.4457c-0.3855-6.5015-3.5205-4.4457-8.1975-2.981
		c-5.1909,1.5933-27.1881,7.6065-22.2542,15.9583C461.6689,246.6368,470.1235,239.9811,473.49,238.2851z"/>
	<path d="M519.5916,207.525c2.4669-8.6601-27.0083-2.5698-30.6316,0.2056l0.0513,4.1116c3.0325,1.0022,2.5698-0.3083,5.9619-1.5162
		c1.9274-0.6938,5.2681-1.2849,7.4266-1.6447C507.5137,207.8334,515.1973,209.144,519.5916,207.525z"/>
	<path d="M703.2269,232.1434c12.8488,6.9897,16.2666,21.2776,22.1514,18.5023c1.5933-3.7005,0.5397-2.3128-1.7988-4.3172
		l-10.1763-11.1014C697.4707,219.7571,689.0417,224.4341,703.2269,232.1434z"/>
	<path d="M612.2058,259.4343c3.8804-8.0433-24.3099-11.05-29.4238-9.9707c-4.8826,8.583,10.8959,1.8245,22.9224,7.7093
		C608.4282,258.5092,609.4304,260.7192,612.2058,259.4343z"/>
	<path d="M641.6296,225.9246c0.7195,5.268,2.9296,3.7775,7.2725,4.8311c14.1594,3.4435,18.9392,12.5662,22.9224,12.3606
		C672.0043,234.5847,646.8462,221.7101,641.6296,225.9246z"/>
	<path d="M451.5184,281.7141c4.42-2.21,14.7761-3.572,16.318-4.6769c-0.1542-10.9215-25.415,3.2379-26.52,6.9384
		C438.7467,292.5842,450.5933,282.1767,451.5184,281.7141z"/>
	<path d="M792.5005,372.7866c-2.9038,3.7518,0.6168,28.0618,0.9509,28.9099c2.5439-0.3855,3.3663-1.1564,4.9596-3.4435
		c-2.0558-9.9193-1.0536-12.4891-2.3641-21.2776C795.5072,373.3262,796.3809,373.7117,792.5005,372.7866z"/>
	<path d="M731.5972,203.7988c5.782,4.0089,15.1101,18.3481,19.376,20.1213c2.724-3.3407,0.2827-4.4714-2.6726-7.6836
		c-6.5271-7.1182-15.7268-20.2241-22.4597-18.9905C725.3013,202.1799,728.0765,201.3318,731.5972,203.7988z"/>
	<path d="M508.1818,258.0209c-3.7518,1.7989-5.6278,2.4156-3.9832,6.1675c3.3921,0.8994,8.4032-3.9832,12.412-4.9083
		c4.8312-1.1307,12.6689-1.0279,15.7527-1.8502C534.0593,247.5876,511.2913,256.5305,508.1818,258.0209z"/>
	<path d="M525.0394,317.0998c3.8032,8.249,0.0514,0.0514,16.061,2.9039c4.4457,0.7966,12.0779,4.4971,15.9069,3.3406v-3.3921
		C553.6152,317.2026,529.6393,313.2966,525.0394,317.0998z"/>
	<path d="M757.1663,340.8187c-5.6534,1.9016-1.1564,7.5294,0.1543,13.1572c1.0278,4.2658,1.2334,12.3605,4.4713,15.0845
		l3.0837-1.953c0.0514-2.2614-2.3641-11.2299-2.981-14.3393C761.0723,348.7079,760.3271,343.2857,757.1663,340.8187z"/>
	<path d="M776.8765,313.425c4.5999,5.782,7.0925,25.4664,11.641,26.8797c3.8802-5.1652-4.7284-25.2094-8.9171-30.0148
		L776.8765,313.425z"/>
	<path d="M651.6517,270.6127c-1.5933,3.9061,1.7218,4.934,4.3943,7.8635l10.9215,14.6733c2.1072,3.0323,2.8268,5.6277,6.63,4.7283
		c0.3855-2.7239-6.0389-10.3047-9.5338-15.1102C661.3911,279.093,656.5343,270.0217,651.6517,270.6127z"/>
	<path d="M619.2727,347.0632c-6.116-3.1094-16.9861-22.3826-24.3357-16.5236c1.1565,4.5228,3.3407,2.5698,7.7092,5.7049
		c1.876,1.3362,21.7402,23.282,20.8923,13.4142C622.0737,346.5493,623.2045,349.0934,619.2727,347.0632z"/>
	<path d="M730.9033,503.5876c-1.1565,4.7798-4.4458,11.8723-2.724,16.3951c4.8312-1.0536,5.191-9.3026,6.0905-13.7483
		c1.0535-5.0881,4.0601-12.3605,1.7731-17.1403C731.6228,488.0406,731.9827,499.0649,730.9033,503.5876z"/>
	<path d="M702.1733,408.6348c-1.3877,3.9061,1.6704,9.1741,3.0322,13.3371c1.5162,4.6255,0.9766,9.6623,5.5251,10.2277
		c4.1116-3.3407,0.3083-8.2747-1.3364-13.6198C707.8525,413.6202,707.8268,406.8874,702.1733,408.6348z"/>
	<path d="M691.6372,179.2062c-2.9551-2.5698-13.6968-9.9963-17.0117-8.2232c-5.6278,3.0837,10.7158,7.3752,13.2343,9.3796
		c3.0066,2.3385,11.564,10.5874,13.9537,11.384C705,188.7401,698.4985,185.168,691.6372,179.2062z"/>
	<path d="M578.7732,178.4095c0.7452,6.373,3.5463,0.8737,16.5237,4.2916c5.1909,1.3362,10.5616,4.7283,15.6755,4.8311
		c0-3.058-2.0044-3.3921-5.1139-4.6512C599.9224,180.4654,584.7864,174.118,578.7732,178.4095z"/>
	<path d="M713.506,578.1365c-2.0814,4.5485-6.0389,9.9194-5.5507,15.1616c5.6792-0.2568,6.373-8.6858,8.5316-13.0029
		c1.7218-3.4435,7.2981-11.1785,4.9082-14.5192C716.6925,565.3134,715.125,574.5903,713.506,578.1365z"/>
	<path d="M761.5093,411.4872c-0.1543,10.5104-3.572,15.2387,3.2893,12.0779c0.334-6.1675,1.696-23.0251-0.771-27.7278
		C756.8835,395.6318,761.6633,400.0004,761.5093,411.4872z"/>
	<path d="M715.6389,301.2957c-1.876,3.3921,4.1887,11.5126,6.3473,15.5214c2.1586,4.0088,5.6278,12.155,11.2042,9.9707
		c-0.3083-0.9766-7.1697-11.1271-8.6602-13.4913C719.3907,305.1761,719.7762,301.5784,715.6389,301.2957z"/>
	<path d="M648.6451,185.9647c3.4435,1.9788,10.3304,8.6859,13.4913,8.5316c0.077-5.7562-23.7446-21.4318-28.3704-16.061
		C634.3059,184.1658,636.7471,179.1548,648.6451,185.9647z"/>
	<path d="M780.0372,447.1299c0.5909,10.3047-4.9596,19.9156-2.5697,24.5927c3.8289,0,9.0712-24.7726,5.8333-28.8842
		C779.9602,442.8127,779.8573,444.1233,780.0372,447.1299z"/>
	<path d="M191.0984,427.4455c-0.1542,3.1608-0.1284,6.6043-0.3597,9.7651c-0.257,3.7518-1.5162,4.0089,0.848,5.7306
		c4.8312-4.0089,4.4199-22.9223,2.9296-28.9099C188.8628,415.0593,191.6123,417.9374,191.0984,427.4455z"/>
	<path d="M730.2866,392.5481c0.7451-4.5742-4.0859-13.2343-5.9619-18.0397s-4.0603-13.9025-10.1506-13.9539
		c-0.3596,4.1887,1.542,4.2915,3.8547,7.9149C722.0376,374.6882,725.0957,388.2309,730.2866,392.5481z"/>
	<path d="M638.3403,388.1024c-2.5183,3.4178-0.1542,3.8546,2.1072,6.6557c1.9016,2.3642,2.6212,5.011,3.9061,7.6322
		c4.934,9.9449,4.6512,13.2856,8.7372,11.9494c0.6682-2.3642-3.5463-9.1227-6.0903-14.6733
		C645.4072,396.2228,642.4777,388.1795,638.3403,388.1024z"/>
	<path d="M785.1254,260.0767c-0.0514-1.362-10.5875-26.52-15.984-26.5971c-0.5139,3.4178,4.8054,11.1528,6.6044,14.5706
		C777.8015,251.9048,780.3456,260.2309,785.1254,260.0767z"/>
	<path d="M641.1414,315.8149c-0.7709-3.6491-13.1572-13.9796-16.8833-16.1896c-3.2637-1.9273-3.9318-3.0323-6.3217-0.3597
		c2.8782,3.315,1.5419,2.0044,5.6278,4.5999C630.8623,308.5425,635.4109,316.4059,641.1414,315.8149z"/>
	<path d="M736.0171,429.3215c-1.439,2.6725,0.5911,23.5133,1.696,25.4921c4.343-1.4391,2.6982-9.9964,2.5955-14.1594
		C740.2058,436.1827,740.5913,429.8868,736.0171,429.3215z"/>
	<path d="M759.1964,497.5744c-3.7518,2.9296-2.3899,6.8613-4.1887,11.5897c-1.5933,4.2144-4.0859,7.3752-2.0558,11.6924
		c3.6233-1.0536,5.2423-8.0177,6.4243-11.6667C760.7126,504.9496,764.2332,498.9107,759.1964,497.5744z"/>
	<path d="M759.6077,290.2457c1.6445-4.0602,0.7195-3.1094-1.8247-6.6042c-2.9808-4.0602-6.5527-12.8746-12.823-15.9326
		l-1.5162,3.2893c2.0302,3.4949,2.4413,1.9273,4.7028,4.5228c1.2334,1.4134,2.2356,3.7518,3.4177,5.4993
		C753.7229,284.1811,756.1898,289.1664,759.6077,290.2457z"/>
	<path d="M667.6357,318.4361l-0.8994,2.6725c1.8501,3.0837-0.437,0.4625,3.1094,2.7496c6.1675,3.9832,9.6108,15.213,13.9795,17.5772
		C686.2665,337.7093,673.5975,318.3847,667.6357,318.4361z"/>
	<path d="M285.1262,406.2449c0.2826,3.6748-1.0793,12.6946,0.1284,14.8019c3.058-0.3855,2.9552-1.0022,3.3149-4.3172
		c0.5397-4.8569,0.9252-18.1426-1.0536-21.6118C283.5586,396.7882,284.8435,402.1848,285.1262,406.2449z"/>
	<path d="M655.5321,361.3254c-2.3641,3.4435-1.0022,1.9017,5.8848,11.6411c2.21,3.1351,6.1417,9.7651,9.765,10.0221
		C671.1819,381.0613,661.0571,361.8908,655.5321,361.3254z"/>
	<path d="M160.5183,397.2508c-0.2057,2.21-1.9275,10.9215-0.1029,11.8466c4.7284,2.3384,3.5978-8.0691,3.8033-10.8187
		c0.3083-4.677,1.7731-8.249-0.9509-12.2321C158.3082,386.8175,160.9807,391.8542,160.5183,397.2508z"/>
	<path d="M705.8994,461.1094c-2.21,2.7496-2.3127,8.8657-3.1608,12.5405c-0.9252,4.0602-3.8032,8.8914-0.3597,11.7438
		c2.1072-1.6703,3.2379-9.2512,4.0603-12.3349C707.3899,469.4612,709.8313,462.8055,705.8994,461.1094z"/>
	<path d="M259.814,395.6061c0.0514,4.1373-0.3855,7.4266,0.848,11.3583c4.4971-1.2335,2.5697-3.8032,3.0066-8.9684
		c0.3341-3.7519,1.2849-8.6602-0.7196-11.8209C258.4263,386.946,259.7368,391.3917,259.814,395.6061z"/>
	<path d="M164.5013,437.1592c-0.3083,4.7797-2.4927,7.2724,1.4647,8.6858c2.3129-2.1329,5.8335-19.4531-0.7451-20.0956
		C163.4734,429.4243,164.8098,432.7136,164.5013,437.1592z"/>
	<path d="M184.4427,387.4343c-3.8033-0.1542-2.2357,18.3738-0.8224,21.1492c3.1095-1.1564,2.1072-0.6682,2.0302-3.4435
		C185.5735,400.6943,188.0146,387.5627,184.4427,387.4343z"/>
	<path d="M215.4341,415.0593c1.2593-2.5441-0.334-17.5258-1.2334-20.8922c-4.9083-0.0257-2.981,6.2959-2.1331,10.1249
		C213.9694,412.952,211.5795,413.6716,215.4341,415.0593z"/>
	<path d="M213.6866,433.6644c-1.7988,2.6725-3.9318,16.9348-2.6982,20.0441c2.724-2.0558,3.058-7.5294,3.9832-10.8444
		C216.2307,438.3413,218.6206,434.5124,213.6866,433.6644z"/>
	<path d="M299.3883,443.0697c-4.0088,1.0279-2.4669,3.572-2.9552,8.5316c-0.3597,3.4178-1.2078,6.9384,1.2078,9.2255
		C301.29,458.1799,301.5469,446.3847,299.3883,443.0697z"/>
	<path d="M704.8972,286.7509c0.0771-4.8311-7.4009-15.1616-11.2297-18.1168l-1.6704,2.3642
		C692.9993,273.2853,702.8928,286.057,704.8972,286.7509z"/>
	<path d="M235.9409,429.3729c-1.3621,3.3921-0.7966,14.7247,2.4927,16.4208c2.6725-2.1329,1.7731-5.9105,1.4646-9.5081
		C239.5128,432.251,239.8726,429.7069,235.9409,429.3729z"/>
	<path d="M137.7244,451.2929c-0.1285,3.6491-1.8502,6.1932-0.0514,9.3797c4.3428-1.105,5.1395-13.4399,3.3922-17.1661
		C135.8999,444.6116,137.8786,446.2048,137.7244,451.2929z"/>
	<path d="M271.9946,456.4839c2.8525-2.6983,3.0581-13.9282,0-16.4208C268.6539,442.7099,267.8831,454.6593,271.9946,456.4839z"/>
	<path d="M731.9827,543.6503c-1.2336,4.4971-3.3665,4.3943-0.4113,8.1719c4.3173-1.6447,5.8077-10.9215,4.8826-15.3415
		C732.1625,536.5577,733.0105,539.8727,731.9827,543.6503z"/>
	<path d="M338.2688,348.5537c1.4905-2.5441,0-4.8054-0.6167-8.069c-0.6938-3.7005,0.3599-5.1652-3.6233-6.5015
		c-3.2637,3.3664-1.696,3.6234-0.2313,7.8378C335.1594,345.727,334.3372,348.1683,338.2688,348.5537z"/>
	<path d="M137.6473,333.5206c2.3898-2.4155,7.9149-11.4354,7.7864-14.5963c-4.163-0.3083-4.7798,2.9296-6.9384,6.8099
		C136.5937,329.152,133.3044,331.7217,137.6473,333.5206z"/>
	<path d="M235.3755,392.985l-3.4949,2.21c0.4368,3.7262-0.3599,11.1014,2.1328,13.4399
		C237.7397,405.5254,236.686,397.5078,235.3755,392.985z"/>
	<path d="M299.8508,365.103c-0.3596,3.3921-1.182,10.536,1.0793,12.9259c3.2893-1.7217,4.2144-9.8936,2.1072-13.4656
		C300.9558,363.9466,302.729,363.6896,299.8508,365.103z"/>
	<path d="M322.9531,442.7099c0.5396,3.6491-0.5397,5.8077,2.5955,7.2725c2.1328-3.3921,1.3877-9.2512,0.8994-13.3885
		C321.3599,436.157,322.3107,438.5726,322.9531,442.7099z"/>
	<path d="M260.0967,426.1863c-0.0771,3.8546-1.2335,6.1931,2.1843,7.221c1.6445-3.2379,2.0814-9.7651,1.3876-13.5684
		C258.5291,419.7105,260.1737,422.3574,260.0967,426.1863z"/>
	<path d="M310.0015,422.8456c2.3127-2.9553,2.5441-9.431,0.6682-12.8488C306.3267,412.1554,306.3524,421.4066,310.0015,422.8456z"/>
	<path d="M305.1189,319.0528c3.1351-3.6234-2.1586-11.8723-6.7585-9.1997C297.4867,312.5256,303.0117,317.1255,305.1189,319.0528z"
		/>
	<path d="M129.6039,359.4238c3.3407-0.848,2.8524-1.3363,3.7004-5.1395c0.7195-3.2893,1.1564-4.3172,0.5397-7.8635
		C129.2699,347.7828,129.938,355.1837,129.6039,359.4238z"/>
	<path d="M151.8838,453.2203c-1.1821,2.4927-0.4625,8.7886,0.8223,11.05C157.8971,463.4222,156.3809,454.5051,151.8838,453.2203z"/>
	<path d="M178.4294,450.7276l0.2571,10.793c4.1372-0.8223,3.4691-8.1976,2.8267-11.7952L178.4294,450.7276z"/>
	<path d="M246.8881,304.0711c-3.6234-0.3084-5.9877,1.0793-3.9318,4.7797C246.6824,310.6754,247.402,307.3347,246.8881,304.0711z"/>
	<path d="M209.0354,307.4632c-4.1887,0.1028-5.011,1.2078-3.649,5.3965C209.3694,312.7055,209.4465,310.9067,209.0354,307.4632z"/>
	<path d="M183.312,312.5256l-2.1586-3.3921c-2.9038,1.7474-3.4691,2.6469-1.6703,5.7562
		C182.207,314.6842,181.4618,314.9926,183.312,312.5256z"/>
	<path d="M270.2472,309.7502c2.6725-2.1586,2.7753-2.6469,0.8737-5.0367c-2.9551,0.6425-1.5675,0.2313-4.0859,2.5184
		C268.7053,309.4933,267.9601,308.9279,270.2472,309.7502z"/>
</g>
</svg>
